<svg xmlns="http://www.w3.org/2000/svg" viewBox="0 0 597.52 142.07"><defs><style>.cls-1{fill:#fff;}</style></defs><g id="Layer_2" data-name="Layer 2"><g id="Layer_1-2" data-name="Layer 1"><polygon class="cls-1" points="96.03 123.61 74.69 84.62 53.35 123.61 39.94 142.07 21.48 128.66 34.89 110.2 65.38 77.85 21.7 69.61 0 62.56 7.05 40.85 28.76 47.91 68.94 66.91 63.28 22.82 63.28 0 86.1 0 86.1 22.82 80.45 66.91 120.63 47.91 142.33 40.85 149.39 62.56 127.68 69.61 84 77.85 114.49 110.2 127.91 128.66 109.45 142.07 96.03 123.61"/><path class="cls-1" d="M191.88,100.76l-8.22,22.85h-16.9l34.32-89.26h20.31l34.31,89.26H238.64l-8.28-22.85ZM211.31,48.2h-.5L196.44,88.11h29.33Z"/><path class="cls-1" d="M333.64,123.61H317.31l-13.84-47.4H303l-13.84,47.4H273.37l-21.5-66.08h16.07l13.71,48.8h.5l13.26-48.8h16.65l13.26,48.8h.5l13.71-48.8H355Z"/><path class="cls-1" d="M425.25,90.59c0,20.91-12.72,34.54-32.65,34.54s-32.77-13.63-32.77-34.54S372.54,56,392.6,56,425.25,69.66,425.25,90.59Zm-14.94,0c0-14.64-6.86-23.1-17.71-23.1S374.77,76,374.77,90.59s6.86,23.06,17.83,23.06S410.31,105.23,410.31,90.59Z"/><path class="cls-1" d="M453.2,33.1v90.51H438.55V33.1Z"/><path class="cls-1" d="M526,112.59a9.19,9.19,0,0,0,2.85-.48v11.5a30.57,30.57,0,0,1-7.2.71c-6.65,0-11-2.14-12.62-7.82h-.5c-4.4,6-13.08,8.63-20.74,8.63-11.71,0-21.63-7.44-21.63-19.71,0-14.23,9.66-19.5,26.89-21.36,12.07-1.37,15.23-3.51,15.23-7.57,0-5.45-3.45-9.15-12.07-9.15-6.25,0-12.05,3.31-14.19,10.57l-13.46-2.64c2.76-12,13.61-19.25,28-19.25C515.71,56,523,65,523,76.62v32.1c0,3.25,1.4,3.87,3.07,3.87ZM508.3,90.31c-2,2.07-8.68,3.13-15.31,4-6.42.9-11.87,4.07-11.87,10.79,0,5.71,3.81,9.1,9.93,9.1,7.67,0,17.25-4.87,17.25-16.51Z"/><path class="cls-1" d="M553.52,66.23c4.9-7,12.12-10.21,20.65-10.21,12.17,0,23.35,7.13,23.35,23.9v43.69H582.86V84c0-11.74-4.86-15.93-13.72-15.93-7.89,0-15.44,6.55-15.44,19.35v36.17H539V57.53h14v8.7Z"/></g></g></svg>